<svg xmlns="http://www.w3.org/2000/svg" version="1.1" xmlns:xlink="http://www.w3.org/1999/xlink" xmlns:svgjs="http://svgjs.dev/svgjs" width="500" height="503"><svg width="500" height="503" viewBox="0 0 500 503" fill="none" xmlns="http://www.w3.org/2000/svg">
<path d="M130.024 0.45752H22.1997C9.99331 0.45752 0.000771667 10.4501 0.000771667 22.6625V133.735C0.000771667 145.948 9.99331 155.928 22.1997 155.928H130.024C142.249 155.928 152.235 145.948 152.235 133.735V22.6625C152.235 10.4501 142.249 0.45752 130.024 0.45752Z" fill="#04193B"></path>
<path d="M303.922 346.605H196.079C183.873 346.605 173.88 356.597 173.88 368.804V479.865C173.88 492.083 183.873 502.082 196.079 502.082H303.922C316.128 502.082 326.121 492.083 326.121 479.865V368.804C326.121 356.597 316.128 346.605 303.922 346.605Z" fill="#04193B"></path>
<path d="M477.789 346.605H369.971C357.752 346.605 347.76 356.597 347.76 368.804V479.865C347.76 492.083 357.752 502.082 369.971 502.082H477.789C490.007 502.082 500 492.083 500 479.865V368.804C500 356.597 490.007 346.605 477.789 346.605Z" fill="#04193B"></path>
<path d="M303.922 0.45752H196.079C183.873 0.45752 173.88 10.4501 173.88 22.6625V133.735C173.88 145.948 183.873 155.928 196.079 155.928H303.922C316.128 155.928 326.121 145.948 326.121 133.735V22.6625C326.121 10.4501 316.128 0.45752 303.922 0.45752Z" fill="#04193B"></path>
<path d="M130.023 346.605H22.199C9.99254 346.605 0 356.597 0 368.804V479.865C0 492.083 9.99254 502.082 22.199 502.082H130.023C142.248 502.082 152.234 492.083 152.234 479.865V368.804C152.234 356.597 142.248 346.605 130.023 346.605Z" fill="#04193B"></path>
<path d="M477.789 0.45752H369.971C357.752 0.45752 347.76 10.4501 347.76 22.6625V133.735C347.76 145.948 357.752 155.928 369.971 155.928H477.789C490.007 155.928 500 145.948 500 133.735V22.6625C500 10.4501 490.007 0.45752 477.789 0.45752Z" fill="#04193B"></path>
<path d="M270.923 263.061H224.48L224.618 276.296H270.923C274.635 276.296 277.534 273.252 277.534 269.679C277.534 266.105 274.629 263.061 270.923 263.061Z" fill="#04193B"></path>
<path d="M276.746 236.597C276.746 232.891 273.696 229.985 270.129 229.985H224.618V243.208H270.129C273.696 243.208 276.746 240.164 276.746 236.597Z" fill="#04193B"></path>
<path d="M477.788 173.525H369.97C357.751 173.525 347.759 183.518 347.759 195.73V306.797C347.759 319.016 357.751 328.996 369.97 328.996H477.788C490.007 328.996 499.999 319.01 499.999 306.797V195.73C499.999 183.512 490.007 173.525 477.788 173.525ZM477.205 296.131L393.733 296.281C384.601 296.281 377.195 288.858 377.195 279.737C377.195 273.126 381.298 267.964 386.58 264.926L446.776 229.991H377.586V210.139H459.74C468.74 210.139 476.278 217.55 476.278 226.682C476.278 233.829 471.652 238.594 465.425 242.168L405.897 276.296H477.199V296.137L477.205 296.131Z" fill="#04193B"></path>
<path d="M303.921 173.525H196.078C183.872 173.525 173.879 183.518 173.879 195.73V306.797C173.879 319.016 183.872 328.996 196.078 328.996H303.921C316.127 328.996 326.12 319.01 326.12 306.797V195.73C326.12 183.512 316.127 173.525 303.921 173.525ZM270.923 296.131H204.777V210.139H269.461C284.026 210.139 295.92 222.056 295.92 236.603C295.92 242.565 293.934 248.123 290.499 252.611C294.47 257.25 297.375 263.205 297.375 269.679C297.375 284.237 285.47 296.137 270.917 296.137L270.923 296.131Z" fill="#04193B"></path>
<path d="M130.023 173.525H22.199C9.99254 173.525 0 183.518 0 195.73V306.797C0 319.016 9.99254 328.996 22.199 328.996H130.023C142.248 328.996 152.234 319.01 152.234 306.797V195.73C152.234 183.512 142.248 173.525 130.023 173.525ZM98.3733 296.131H32.2216V210.138H96.9174C111.476 210.138 123.382 222.056 123.382 236.603C123.382 242.565 121.396 248.123 117.961 252.611C121.926 257.25 124.838 263.205 124.838 269.679C124.838 284.237 112.932 296.137 98.3793 296.137L98.3733 296.131Z" fill="#04193B"></path>
<path d="M104.196 236.597C104.196 232.891 101.146 229.985 97.5786 229.985H52.0617V243.208H97.5786C101.14 243.208 104.196 240.164 104.196 236.597Z" fill="#04193B"></path>
<path d="M98.3726 263.061H51.9293L52.0676 276.296H98.3726C102.078 276.296 104.996 273.252 104.996 269.679C104.996 266.105 102.078 263.061 98.3726 263.061Z" fill="#04193B"></path>
<path d="M393.733 296.281L477.205 296.131L477.199 276.296H405.897L465.425 242.168C471.652 238.594 476.278 233.829 476.278 226.682C476.278 217.55 468.74 210.139 459.74 210.139H377.586V229.991H446.776L386.58 264.926C381.298 267.964 377.195 273.126 377.195 279.737C377.195 288.858 384.601 296.281 393.733 296.281Z" fill="white"></path>
<path fill-rule="evenodd" clip-rule="evenodd" d="M270.923 296.131H204.777V210.139H269.461C284.026 210.139 295.92 222.056 295.92 236.603C295.92 242.565 293.934 248.123 290.499 252.611C294.47 257.25 297.375 263.205 297.375 269.679C297.375 284.237 285.47 296.137 270.917 296.137L270.923 296.131ZM224.48 263.061H270.923C274.629 263.061 277.534 266.105 277.534 269.679C277.534 273.252 274.635 276.296 270.923 276.296H224.618L224.48 263.061ZM270.129 229.985C273.696 229.985 276.746 232.891 276.746 236.597C276.746 240.164 273.696 243.208 270.129 243.208H224.618V229.985H270.129Z" fill="white"></path>
<path fill-rule="evenodd" clip-rule="evenodd" d="M98.3733 296.131H32.2216V210.138H96.9174C111.476 210.138 123.382 222.056 123.382 236.603C123.382 242.565 121.396 248.123 117.961 252.611C121.926 257.25 124.838 263.205 124.838 269.679C124.838 284.237 112.932 296.137 98.3793 296.137L98.3733 296.131ZM97.5786 229.985C101.146 229.985 104.196 232.891 104.196 236.597C104.196 240.164 101.14 243.208 97.5786 243.208H52.0617V229.985H97.5786ZM51.9293 263.061H98.3726C102.078 263.061 104.996 266.105 104.996 269.679C104.996 273.252 102.078 276.296 98.3726 276.296H52.0676L51.9293 263.061Z" fill="white"></path>
</svg><style>@media (prefers-color-scheme: light) { :root { filter: none; } }
@media (prefers-color-scheme: dark) { :root { filter: none; } }
</style></svg>